<?xml version="1.0" encoding="UTF-8"?><svg id="Ebene_1" xmlns="http://www.w3.org/2000/svg" xmlns:xlink="http://www.w3.org/1999/xlink" viewBox="0 0 923.34 327.67"><defs><style>.cls-1{fill:#19bb67;}.cls-2{clip-path:url(#clippath);}.cls-3{fill:#1b1464;}.cls-4{fill:none;}</style><clipPath id="clippath"><path class="cls-4" d="m75.68,102.48v122.7h222.97v-122.7H75.68Zm194.99,44.84c-.54,0-1.1-.01-1.67-.01-2.66,0-5.25.08-7.76.16-2.48.08-4.82.15-7.2.15h0c-2.38,0-4.43-.08-6.37-.24l-2.76-10.64c1.05.26,2.11.47,3.15.63,2.76.4,5.3.6,7.75.6,3.09,0,5.75-.3,8.82-.64,1.74-.19,3.55-.39,5.57-.55l2.59,10.68c-.67-.06-1.36-.11-2.13-.14Z"/></clipPath></defs><path class="cls-3" d="m463.02,175.32h-35.47v44.41h-25.16v-111.55h25.16v43.2h35.47v-43.2h25.16v111.55h-25.16v-44.41Z"/><path class="cls-3" d="m505.15,163.95c0-34.1,24.86-58.05,58.2-58.05s58.35,23.95,58.35,58.05-25.01,58.05-58.35,58.05-58.2-23.95-58.2-58.05Zm58.2,34.1c18.34,0,32.28-13.64,32.28-34.1s-13.95-34.1-32.28-34.1-32.13,13.64-32.13,34.1,13.79,34.1,32.13,34.1Z"/><path class="cls-1" d="m139.14,186.91c-.76-1.29-1.44-2.62-2.02-3.99,11.57.07,23.09-.4,34.56-1.96,4.51-.61,9.02-1.35,13.46-2.35,13.75-3.12,29.1-9.8,31.33-25.54.07-.51.13-1.03.18-1.55.72-7.76-1.29-15.91-4.69-22.83-5.76-11.74-17.34-18.54-30.06-20.08-16.64-2.01-34.2,3.67-45.96,15.74-10.58,10.86-14.85,25.01-15.58,39.83-.18,3.69-.35,3.84-4.06,3.61-8.51-.25-17.87-1.26-25.95,2.09-7.11,2.95-11.72,9.61-12.52,17.23-.94,9.05,2.22,19.94,8.91,26.29,4.97,4.71,10.85,7.78,17.62,8.83,6.04.99,12.23,1.3,18.32.49,1.08-.14,5.52-.89,5.38-2.46,0-.05-.01-.1-.02-.15-.52-2.19-7.94-1.57-9.34-1.55-11.16.2-23.02-5.19-28.18-15.5-1.71-3.42-2.81-7.31-2.62-11.16.12-2.47.87-4.95,2.42-6.87,1.94-2.43,4.98-3.78,8.04-4.29s6.2-.28,9.3-.05c4.14.31,8.27.63,12.41.94.84.06,1.74.15,2.38.69.61.52.85,1.35,1.08,2.12.94,3.18,2.26,6.21,3.82,9.13,1.54,2.77,3.16,5.5,5.16,7.97,5.84,7.21,13.91,12.11,22.81,14.54,8.28,2.26,16.94,2.88,25.45,1.74,14.71-1.97,30.8-8.38,43.86-14.85,24.53-12.15,41.78-21.29,63.83-37.82,4.48-3.4,9.36-8.51,7.96-14.89-1.17-6.06-6.31-10.23-11.94-11.75-3.36-.93-6.6-1.07-9.64-.99-11.42.42-15.82,2.47-26.91.86-5.7-.87-12.95-3.45-13.99-7.12-.24-.87,2.87-2.03,4.6-2.85,2.45-1.07,5.29-2.13,7.78-3.25,14.56-5.58,24.63-12.59,36.73-19.43.73-.41.18-1.52-.59-1.18-14.59,6.37-28.89,10.58-44.05,15.38-4.16,1.63-8.67,4-12.81,6.36-3.04,1.69-5.2,4.97-3.15,8.3,2.39,3.43,5.69,5.72,9.31,7.55,13.43,6.48,24.96,3.99,38.96,4.19,3.95.17,7.5.6,10.44,2.92,1.14.96,2.28,2.65,1.97,4.08-.68,1.93-3.08,3.29-4.88,4.7-9.42,6.74-20.08,9.86-30.4,14.85-11.26,5.44-22,11.89-33.21,17.42-17.31,8.53-41.34,17.52-60.51,9.82-6.26-2.52-11.54-7.38-15-13.2Zm1.49-18.43c-7.41-.32-8.69.72-8.91-2.23-.21-2.77-.34-5.29-.08-8.09.21-2.3.1-4.59.39-6.89.58-4.58,2.02-9.02,3.99-13.18,6.85-14.43,21.93-23.3,37.55-24.75,2.59-.24,5.21-.18,7.79.18,5.54.77,10.87,2.93,15.32,6.32,5.59,4.27,9.64,10.39,11.34,17.22,1.82,7.3,1.6,16.19-4.14,21.71-2.57,2.47-5.83,4-9.23,4.97-8.36,2.4-17.51,3.26-26.28,3.95-1.83.14-3.65.28-5.44.42-7.42.59-14.86.67-22.3.36Z"/><path class="cls-3" d="m237.5,108.18h25.77l17.43,71.84,20.61-71.84h23.8l21.37,72.3,16.82-72.3h25.16l-28.64,111.55h-24.86l-21.83-71.69-21.82,71.69h-24.86l-28.95-111.55Z"/><g class="cls-2"><path class="cls-1" d="m139.14,186.91c-.76-1.29-1.44-2.62-2.02-3.99,11.57.07,23.09-.4,34.56-1.96,4.51-.61,9.02-1.35,13.46-2.35,13.75-3.12,29.1-9.8,31.33-25.54.07-.51.13-1.03.18-1.55.72-7.76-1.29-15.91-4.69-22.83-5.76-11.74-17.34-18.54-30.06-20.08-16.64-2.01-34.2,3.67-45.96,15.74-10.58,10.86-14.85,25.01-15.58,39.83-.18,3.69-.35,3.84-4.06,3.61-8.51-.25-17.87-1.26-25.95,2.09-7.11,2.95-11.72,9.61-12.52,17.23-.94,9.05,2.22,19.94,8.91,26.29,4.97,4.71,10.85,7.78,17.62,8.83,6.04.99,12.23,1.3,18.32.49,1.08-.14,5.52-.89,5.38-2.46,0-.05-.01-.1-.02-.15-.52-2.19-7.94-1.57-9.34-1.55-11.16.2-23.02-5.19-28.18-15.5-1.71-3.42-2.81-7.31-2.62-11.16.12-2.47.87-4.95,2.42-6.87,1.94-2.43,4.98-3.78,8.04-4.29s6.2-.28,9.3-.05c4.14.31,8.27.63,12.41.94.84.06,1.74.15,2.38.69.61.52.85,1.35,1.08,2.12.94,3.18,2.26,6.21,3.82,9.13,1.54,2.77,3.16,5.5,5.16,7.97,5.84,7.21,13.91,12.11,22.81,14.54,8.28,2.26,16.94,2.88,25.45,1.74,14.71-1.97,30.8-8.38,43.86-14.85,24.53-12.15,41.78-21.29,63.83-37.82,4.48-3.4,9.36-8.51,7.96-14.89-1.17-6.06-6.31-10.23-11.94-11.75-3.36-.93-6.6-1.07-9.64-.99-11.42.42-15.82,2.47-26.91.86-5.7-.87-12.95-3.45-13.99-7.12-.24-.87,2.87-2.03,4.6-2.85,2.45-1.07,5.29-2.13,7.78-3.25,14.56-5.58,24.63-12.59,36.73-19.43.73-.41.18-1.52-.59-1.18-14.59,6.37-28.89,10.58-44.05,15.38-4.16,1.63-8.67,4-12.81,6.36-3.04,1.69-5.2,4.97-3.15,8.3,2.39,3.43,5.69,5.72,9.31,7.55,13.43,6.48,24.96,3.99,38.96,4.19,3.95.17,7.5.6,10.44,2.92,1.14.96,2.28,2.65,1.97,4.08-.68,1.93-3.08,3.29-4.88,4.7-9.42,6.74-20.08,9.86-30.4,14.85-11.26,5.44-22,11.89-33.21,17.42-17.31,8.53-41.34,17.52-60.51,9.82-6.26-2.52-11.54-7.38-15-13.2Zm1.49-18.43c-7.41-.32-8.69.72-8.91-2.23-.21-2.77-.34-5.29-.08-8.09.21-2.3.1-4.59.39-6.89.58-4.58,2.02-9.02,3.99-13.18,6.85-14.43,21.93-23.3,37.55-24.75,2.59-.24,5.21-.18,7.79.18,5.54.77,10.87,2.93,15.32,6.32,5.59,4.27,9.64,10.39,11.34,17.22,1.82,7.3,1.6,16.19-4.14,21.71-2.57,2.47-5.83,4-9.23,4.97-8.36,2.4-17.51,3.26-26.28,3.95-1.83.14-3.65.28-5.44.42-7.42.59-14.86.67-22.3.36Z"/></g><path class="cls-3" d="m827.9,219.73h17.76v-111.55h-20l-36.4,62.16-36.91-62.16h-20.5v111.55h17.76v-83.44l33.37,56.92h11.88l33.05-56.65v83.18Z"/><path class="cls-3" d="m682.83,171.99l5.25-1.31c15.16-3.79,23.86-14.43,23.86-29.2,0-21.47-13.15-33.3-37.02-33.3h-36.69v111.55h19.38v-95.9h16.02c11.21,0,18.45,6.92,18.45,17.64s-7.24,17.64-18.45,17.64h-10.28v13.97l29.47,46.65h23.15l-33.14-47.74Z"/></svg>